<svg width="60" height="60" viewBox="0 0 60 60" fill="none" xmlns="http://www.w3.org/2000/svg">
<path d="M42.7801 38.9943V31.4462H34.8956V27.5627C34.8956 23.7214 36.6261 21.8002 40.0894 21.8002C41.3193 21.8002 42.6236 22.0713 44 22.6147V14.6588C42.6236 14.2199 40.8708 14.001 38.7429 14.001C34.5703 14.001 31.2025 15.181 28.6372 17.54C26.072 19.9001 24.7888 23.0525 24.7888 26.9982V31.4451H19V38.9932H24.7888V58.6889C25.8922 58.8244 27.0144 59.001 28.1544 59.001C30.481 59.001 32.7377 59.1747 34.8945 58.6269V38.9921H42.779L42.7801 38.9943Z" fill="#FDFDFF"/>
<circle cx="30" cy="30" r="29.25" stroke="#FDFDFF" stroke-width="1.5"/>
</svg>
