<svg width="60" height="60" viewBox="0 0 60 60" fill="none" xmlns="http://www.w3.org/2000/svg">
<path d="M39.4091 23.14C40.8174 23.14 41.9591 21.9983 41.9591 20.59C41.9591 19.1817 40.8174 18.04 39.4091 18.04C38.0008 18.04 36.8591 19.1817 36.8591 20.59C36.8591 21.9983 38.0008 23.14 39.4091 23.14Z" fill="#FDFDFF"/>
<path d="M29.9998 20.5898C24.8026 20.5898 20.5894 24.8031 20.5894 29.9991C20.5894 35.1951 24.8026 39.4095 29.9998 39.4095C35.197 39.4095 39.4091 35.1963 39.4091 29.9991C39.4091 24.8019 35.1958 20.5898 29.9998 20.5898V20.5898ZM29.9998 35.9869C26.6931 35.9869 24.012 33.3058 24.012 29.9991C24.012 26.6925 26.6931 24.0113 29.9998 24.0113C33.3064 24.0113 35.9876 26.6925 35.9876 29.9991C35.9876 33.3058 33.3064 35.9869 29.9998 35.9869Z" fill="#FDFDFF"/>
<path d="M37.6545 11.9922H22.3453C16.6269 11.9922 11.9919 16.6271 11.9919 22.3455V37.6548C11.9919 43.3732 16.6269 48.0081 22.3453 48.0081H37.6545C43.3729 48.0081 48.0079 43.3732 48.0079 37.6548V22.3455C48.0079 16.6271 43.3729 11.9922 37.6545 11.9922V11.9922ZM44.5173 37.7192C44.5173 41.4733 41.4742 44.5176 37.7189 44.5176H22.2809C18.5268 44.5176 15.4825 41.4745 15.4825 37.7192V22.2811C15.4825 18.527 18.5256 15.4827 22.2809 15.4827H37.7189C41.473 15.4827 44.5173 18.5258 44.5173 22.2811V37.7192V37.7192Z" fill="#FDFDFF"/>
<circle cx="30" cy="30" r="29.25" stroke="#FDFDFF" stroke-width="1.5"/>
</svg>
