<svg width="60" height="60" viewBox="0 0 60 60" fill="none" xmlns="http://www.w3.org/2000/svg">
<path d="M12.593 16.079C12.593 15.0189 12.969 14.1557 13.721 13.4904C14.473 12.8239 15.4358 12.4912 16.6107 12.4912C17.7855 12.4912 18.7882 12.8309 19.532 13.5114C20.2769 14.192 20.6494 15.047 20.6494 16.079C20.6494 17.1109 20.2699 17.9953 19.5109 18.6887C18.7519 19.3833 17.7855 19.7312 16.6107 19.7312C15.4358 19.7312 14.4906 19.381 13.7315 18.6782C12.9725 17.9765 12.593 17.1097 12.593 16.079V16.079ZM13.1084 47.5092V23.7488H20.0263V47.5092H13.1084V47.5092Z" fill="#FDFDFF"/>
<path d="M47.4073 47.5091H40.5105V34.2544C40.5105 30.4159 39.1284 28.4961 36.364 28.4961C35.0463 28.4961 33.9511 29.0092 33.0773 30.0317C32.2035 31.0555 31.7666 32.3627 31.7666 33.9522V47.5079H24.8276V23.7488H31.7666V27.5298H31.8521C33.5845 24.6226 36.1344 23.1689 39.5008 23.1689C44.7718 23.1689 47.4073 26.4346 47.4073 32.9659V47.5103V47.5091Z" fill="#FDFDFF"/>
<circle cx="30" cy="30" r="29.25" stroke="#FDFDFF" stroke-width="1.5"/>
</svg>
