<svg width="60" height="60" viewBox="0 0 60 60" fill="none" xmlns="http://www.w3.org/2000/svg">
<path d="M15.0832 17.3722C19.3211 21.9603 23.9396 25.0069 29.3816 24.7141C29.3043 17.7588 34.4604 13.7364 41.7473 18.6853L45.8434 16.9072L43.5242 20.3849L46.6926 19.8437L43.5242 22.7803C42.7511 42.489 25.7481 47.2809 13.304 40.7882C17.5008 40.527 20.7934 39.7165 22.7331 38.0836C19.9149 37.5319 18.0408 35.8054 16.8589 33.2144L19.4089 33.0598C16.6083 32.1087 14.9895 29.7426 14.3078 26.2579C15.3948 26.3516 16.531 26.4488 17.0124 26.4898C14.3277 24.2186 13.9915 21.0619 15.0797 17.3699L15.0832 17.3722Z" fill="#FDFDFF"/>
<circle cx="30" cy="30" r="29.25" stroke="#FDFDFF" stroke-width="1.5"/>
</svg>
